<?xml version="1.0" encoding="utf-8"?>
<svg width="187px" height="187px" style="padding:0px;" viewBox="0 0 1024 1024" xmlns="http://www.w3.org/2000/svg">
  <g transform="matrix(0.043679, -0.000468, 0, -0.038414, 274.214142, 735.315002)" fill="#fff" stroke="none" style="">
    <path
      d="M 4505 10059 C 4467 10054 4365 10036 4280 10019 C 2774 9721 1550 8866 815 7600 C 549 7143 330 6557 251 6090 C 196 5769 175 5438 183 5020 C 191 4621 213 4388 271 4097 C 340 3754 503 3307 711 2890 C 816 2680 903 2533 1033 2344 C 1086 2266 1130 2198 1130 2194 C 1130 2189 1004 2057 850 1901 C 696 1745 592.494 1683.718 592.494 1680.718 C 592.494 1677.718 579.459 235.979 574.32 524.384 L 1599.067 386.622 L 1960 805 L 2255 1100 L 2315 1059 C 2619 854 3157 601 3636 437 C 4042 298 4404 243 4980 233 C 5757 220 6260 303 6880 547 C 8157 1050 9192 2086 9693 3360 C 9867 3802 9964 4207 9991 4608 C 10007 4844 9997 5716 9976 5875 C 9915 6343 9738 6885 9470 7420 C 9379 7603 9341 7668 9217 7858 L 9117 8012 L 9393 8288 C 9546 8441 9772.615 8717.917 9774.66 8722.479 C 10177.631 9621.305 9332.57 10302.449 8628.568 9742.992 L 8443.46 9557.568 L 8296 9397 L 8024 9118 L 7894 9210 C 7662 9375 7374 9532 7050 9670 C 6492 9909 6164 9987 5480 10046 C 5263 10064 4608 10073 4505 10059 Z M 5670 8616 C 5853 8593 6006 8558 6178 8498 C 6542 8373 7010 8151 7010 8104 C 7010 8096 6901 7977 6768 7838 C 6244 7293 3051 4093 2756 3817 C 2431 3513 2257 3387 2159 3386 C 2081 3385 2046 3431 1969 3635 C 1949 3690 1907 3796 1877 3871 C 1705 4295 1646 4615 1647 5120 C 1647 5634 1688 5936 1802 6270 C 2075 7064 2623 7745 3340 8180 C 3692 8394 4119 8556 4457 8605 C 4658 8634 4764 8638 5150 8635 C 5434 8633 5570 8628 5670 8616 Z M 8148 6918 C 8252 6763 8412 6391 8485 6132 C 8574 5812 8608 5457 8590 5028 C 8579 4768 8568 4659 8534 4460 C 8430 3850 8179 3362 7703 2845 C 7164 2259 6595 1916 5930 1775 C 5483 1681 4808 1668 4415 1746 C 4231 1783 3839 1915 3588 2025 C 3474 2075 3358 2140 3352 2158 C 3343 2187 3933 2804 5137 4024 C 6921 5834 8060 6960 8105 6960 C 8113 6960 8132 6941 8148 6918 Z" />
  </g>
</svg>
