<?xml version="1.0" encoding="utf-8"?>
<svg viewBox="0 0 500 500" xmlns="http://www.w3.org/2000/svg">
  <g transform="matrix(0.025491, 0, 0, -0.027996, 39.457554, 304.206822)" fill="#fff" stroke="none" style="">
    <path d="M1990 4100 c-96 -4 -242 -8 -324 -9 l-148 -1 5 -22 c30 -118 32 -190 32 -1063 0 -870 -2 -945 -31 -1061 -5 -21 -2 -21 276 -34 429 -20 627 -4 844 66 472 152 726 530 726 1079 0 404 -132 695 -395 870 -226 151 -487 197 -985 175z m460 -144 c311 -77 506 -285 585 -621 52 -227 41 -550 -26 -756 -99 -305 -316 -484 -649 -534 -99 -15 -316 -20 -432 -9 -58 6 -67 10 -72 29 -22 88 -25 1869 -3 1891 26 26 490 26 597 0z"/>
    <path d="M4640 4100 c-85 -4 -325 -8 -534 -9 l-378 -1 5 -22 c30 -118 32 -190 32 -1073 0 -803 -2 -909 -17 -985 -10 -46 -16 -85 -15 -86 1 -1 248 -4 549 -6 l547 -3 16 90 c9 50 18 103 21 119 5 24 3 28 -10 23 -35 -14 -279 -57 -406 -72 -74 -8 -196 -17 -270 -18 l-135 -2 -3 474 -2 474 162 -7 c90 -3 231 -15 313 -25 83 -10 153 -15 157 -12 3 3 13 41 22 83 8 42 18 87 21 100 l6 24 -108 -12 c-145 -17 -538 -38 -557 -31 -14 6 -16 54 -16 417 0 225 3 410 8 411 229 19 479 13 646 -16 49 -9 90 -14 92 -12 2 2 19 45 38 95 l34 92 -32 -2 c-17 -1 -101 -5 -186 -8z"/>
    <path d="M12850 3938 l0 -165 68 13 c87 18 444 34 746 34 203 0 237 -2 233 -14 -3 -8 -244 -426 -535 -928 -291 -502 -534 -923 -541 -935 -12 -23 -12 -23 72 -23 l83 0 627 1074 c345 590 627 1078 627 1085 0 8 -170 11 -659 11 -362 0 -673 3 -690 6 l-31 7 0 -165z"/>
    <path d="M4984 4065 c88 -134 128 -220 586 -1252 l414 -933 62 0 61 0 438 973 c453 1006 508 1123 557 1195 l29 42 -153 0 -153 0 -1 -78 c0 -62 -6 -92 -32 -154 -64 -157 -673 -1563 -680 -1570 -8 -8 -674 1490 -710 1595 -14 43 -24 95 -24 138 l-2 69 -204 0 -204 0 16 -25z" style=""/>
  </g>
  <g id="a_3_" transform="matrix(1, 0, 0, 1, -1008.304641, -450.21189)" style="opacity: 1;">
    <path d="M 1338.231 706.081 C 1334.031 706.081 1329.934 705.247 1326.054 703.601 C 1322.032 701.896 1318.427 699.395 1315.339 696.168 L 1315.335 696.164 L 1306.07 686.469 L 1296.801 696.168 C 1293.712 699.395 1290.107 701.896 1286.086 703.601 C 1282.206 705.247 1278.109 706.081 1273.909 706.081 C 1269.71 706.081 1265.613 705.247 1261.733 703.601 C 1257.712 701.896 1254.106 699.395 1251.018 696.168 C 1247.927 692.937 1245.532 689.165 1243.897 684.956 C 1242.321 680.895 1241.521 676.606 1241.518 672.209 C 1241.515 667.812 1242.311 663.522 1243.884 659.46 C 1245.513 655.248 1247.905 651.473 1250.992 648.24 C 1254.08 645.005 1257.685 642.499 1261.709 640.789 C 1265.59 639.139 1269.689 638.302 1273.891 638.3 C 1273.897 638.3 1273.904 638.3 1273.91 638.3 C 1278.106 638.3 1282.199 639.133 1286.077 640.774 C 1290.102 642.48 1293.71 644.982 1296.801 648.212 L 1296.805 648.216 L 1306.07 657.91 L 1315.339 648.212 C 1318.43 644.982 1322.038 642.48 1326.063 640.774 C 1329.94 639.133 1334.034 638.299 1338.23 638.299 C 1338.236 638.299 1338.242 638.299 1338.249 638.299 C 1342.451 638.302 1346.55 639.139 1350.431 640.789 C 1354.454 642.499 1358.06 645.005 1361.147 648.24 C 1364.235 651.473 1366.627 655.248 1368.256 659.46 C 1369.828 663.522 1370.624 667.812 1370.622 672.209 C 1370.619 676.606 1369.819 680.895 1368.242 684.956 C 1366.608 689.165 1364.213 692.937 1361.122 696.168 C 1358.034 699.395 1354.428 701.896 1350.406 703.601 C 1346.527 705.247 1342.43 706.081 1338.231 706.081 Z M 1273.91 658.495 C 1273.907 658.495 1273.905 658.495 1273.902 658.495 C 1270.406 658.497 1267.119 659.922 1264.648 662.511 C 1262.177 665.1 1260.817 668.54 1260.819 672.199 C 1260.821 675.856 1262.184 679.295 1264.659 681.88 C 1269.759 687.212 1278.059 687.212 1283.161 681.88 L 1292.422 672.189 L 1283.157 662.497 C 1280.685 659.915 1277.402 658.495 1273.91 658.495 Z M 1328.979 681.88 C 1334.081 687.212 1342.38 687.212 1347.481 681.88 C 1349.955 679.295 1351.319 675.856 1351.321 672.199 C 1351.323 668.54 1349.963 665.1 1347.492 662.511 C 1345.021 659.922 1341.734 658.497 1338.238 658.495 C 1338.235 658.495 1338.233 658.495 1338.23 658.495 C 1334.736 658.495 1331.451 659.916 1328.979 662.501 L 1319.718 672.189 L 1328.979 681.88 Z" style=""/>
  </g>
</svg>